<mxfile host="app.diagrams.net" agent="Mozilla/5.0 (Windows NT 10.0; Win64; x64) AppleWebKit/537.36 (KHTML, like Gecko) Chrome/140.0.0.0 Safari/537.36 Edg/140.0.0.0" version="28.2.1">
  <diagram name="Pagina-1" id="7ErkQaEndvJFLe4ZZqpj">
    <mxGraphModel dx="1418" dy="786" grid="1" gridSize="10" guides="1" tooltips="1" connect="1" arrows="1" fold="1" page="1" pageScale="1" pageWidth="1169" pageHeight="827" math="0" shadow="0">
      <root>
        <mxCell id="0" />
        <mxCell id="1" parent="0" />
        <mxCell id="OcT6pale5q3MP4wA5Yij-4" value="Prof_Users" style="swimlane;whiteSpace=wrap;html=1;" vertex="1" parent="1">
          <mxGeometry x="40" y="40" width="260" height="140" as="geometry" />
        </mxCell>
        <mxCell id="OcT6pale5q3MP4wA5Yij-7" value="id : INT&amp;nbsp;&amp;nbsp;&lt;br&gt;username : VARCHAR(50)&amp;nbsp;&amp;nbsp;&lt;br&gt;email : VARCHAR(255)&amp;nbsp;&amp;nbsp;&lt;br&gt;hashed_password : VARCHAR(255)&amp;nbsp;&amp;nbsp;&lt;br&gt;right_names_id : INT&amp;nbsp;&amp;nbsp;&lt;br&gt;enabled : BOOLEAN&amp;nbsp;&amp;nbsp;&lt;br&gt;created_at : TIMESTAMP" style="text;html=1;align=center;verticalAlign=middle;whiteSpace=wrap;rounded=0;" vertex="1" parent="OcT6pale5q3MP4wA5Yij-4">
          <mxGeometry y="20" width="260" height="120" as="geometry" />
        </mxCell>
        <mxCell id="OcT6pale5q3MP4wA5Yij-8" value="&lt;div&gt;Prof_profiles&lt;/div&gt;" style="swimlane;whiteSpace=wrap;html=1;" vertex="1" parent="1">
          <mxGeometry x="365" y="40" width="260" height="140" as="geometry" />
        </mxCell>
        <mxCell id="OcT6pale5q3MP4wA5Yij-9" value="&lt;div&gt;id : INT&amp;nbsp;&amp;nbsp;&lt;/div&gt;&lt;div&gt;users_id : INT&amp;nbsp;&amp;nbsp;&lt;/div&gt;&lt;div&gt;first_name : VARCHAR(100)&amp;nbsp;&amp;nbsp;&lt;/div&gt;&lt;div&gt;last_name : VARCHAR(100)&amp;nbsp;&amp;nbsp;&lt;/div&gt;&lt;div&gt;street : VARCHAR(255)&amp;nbsp;&amp;nbsp;&lt;/div&gt;&lt;div&gt;city : VARCHAR(255)&amp;nbsp;&amp;nbsp;&lt;/div&gt;&lt;div&gt;phone : VARCHAR(20)&amp;nbsp;&amp;nbsp;&lt;/div&gt;&lt;div&gt;donor : BOOLEAN&amp;nbsp;&lt;/div&gt;" style="text;html=1;align=center;verticalAlign=middle;whiteSpace=wrap;rounded=0;" vertex="1" parent="OcT6pale5q3MP4wA5Yij-8">
          <mxGeometry y="20" width="260" height="120" as="geometry" />
        </mxCell>
        <mxCell id="OcT6pale5q3MP4wA5Yij-11" value="&lt;div&gt;Prof_Rights&lt;/div&gt;" style="swimlane;whiteSpace=wrap;html=1;" vertex="1" parent="1">
          <mxGeometry x="680" y="40" width="260" height="80" as="geometry" />
        </mxCell>
        <mxCell id="OcT6pale5q3MP4wA5Yij-12" value="&lt;div&gt;id : INT&amp;nbsp;&amp;nbsp;&lt;/div&gt;&lt;div&gt;title : VARCHAR(20)&amp;nbsp;&amp;nbsp;&lt;/div&gt;&lt;div&gt;description : VARCHAR(255)&amp;nbsp;&amp;nbsp;&lt;/div&gt;" style="text;html=1;align=center;verticalAlign=middle;whiteSpace=wrap;rounded=0;" vertex="1" parent="OcT6pale5q3MP4wA5Yij-11">
          <mxGeometry y="20" width="260" height="60" as="geometry" />
        </mxCell>
        <mxCell id="OcT6pale5q3MP4wA5Yij-13" value="&lt;div&gt;Prof_right_names&lt;/div&gt;" style="swimlane;whiteSpace=wrap;html=1;" vertex="1" parent="1">
          <mxGeometry x="40" y="200" width="260" height="80" as="geometry" />
        </mxCell>
        <mxCell id="OcT6pale5q3MP4wA5Yij-14" value="&lt;div&gt;id : INT&amp;nbsp;&amp;nbsp;&lt;/div&gt;&lt;div&gt;name : VARCHAR(40)&amp;nbsp;&amp;nbsp;&lt;/div&gt;&lt;div&gt;description : VARCHAR(255)&amp;nbsp;&amp;nbsp;&lt;/div&gt;" style="text;html=1;align=center;verticalAlign=middle;whiteSpace=wrap;rounded=0;" vertex="1" parent="OcT6pale5q3MP4wA5Yij-13">
          <mxGeometry y="20" width="260" height="60" as="geometry" />
        </mxCell>
        <mxCell id="OcT6pale5q3MP4wA5Yij-15" value="&lt;div&gt;Prof_right_profiles&lt;/div&gt;" style="swimlane;whiteSpace=wrap;html=1;" vertex="1" parent="1">
          <mxGeometry x="365" y="200" width="260" height="71" as="geometry" />
        </mxCell>
        <mxCell id="OcT6pale5q3MP4wA5Yij-16" value="&lt;div&gt;id : INT&amp;nbsp;&amp;nbsp;&lt;/div&gt;&lt;div&gt;right_names_id : INT&amp;nbsp;&amp;nbsp;&lt;/div&gt;&lt;div&gt;rights_id : INT&amp;nbsp;&amp;nbsp;&lt;/div&gt;&lt;div&gt;&lt;br&gt;&lt;/div&gt;" style="text;html=1;align=center;verticalAlign=middle;whiteSpace=wrap;rounded=0;" vertex="1" parent="OcT6pale5q3MP4wA5Yij-15">
          <mxGeometry y="20" width="260" height="70" as="geometry" />
        </mxCell>
        <mxCell id="OcT6pale5q3MP4wA5Yij-17" value="&lt;div&gt;CMS_Lang&lt;/div&gt;" style="swimlane;whiteSpace=wrap;html=1;" vertex="1" parent="1">
          <mxGeometry x="680" y="200" width="260" height="71" as="geometry" />
        </mxCell>
        <mxCell id="OcT6pale5q3MP4wA5Yij-18" value="&lt;div&gt;&lt;div&gt;id : INT&amp;nbsp;&amp;nbsp;&lt;/div&gt;&lt;div&gt;lang_key : VARCHAR(255)&amp;nbsp;&amp;nbsp;&lt;/div&gt;&lt;div&gt;lang_description : VARCHAR(255)&amp;nbsp;&amp;nbsp;&lt;/div&gt;&lt;/div&gt;" style="text;html=1;align=center;verticalAlign=middle;whiteSpace=wrap;rounded=0;" vertex="1" parent="OcT6pale5q3MP4wA5Yij-17">
          <mxGeometry y="20" width="260" height="50" as="geometry" />
        </mxCell>
        <mxCell id="OcT6pale5q3MP4wA5Yij-19" value="&lt;div&gt;CMS_Page_types&lt;/div&gt;" style="swimlane;whiteSpace=wrap;html=1;" vertex="1" parent="1">
          <mxGeometry x="40" y="300" width="260" height="80" as="geometry" />
        </mxCell>
        <mxCell id="OcT6pale5q3MP4wA5Yij-20" value="&lt;div&gt;id : INT&amp;nbsp;&amp;nbsp;&lt;/div&gt;&lt;div&gt;option_type : VARCHAR(255)&amp;nbsp;&amp;nbsp;&lt;/div&gt;&lt;div&gt;option_description : VARCHAR(255)&amp;nbsp;&amp;nbsp;&lt;/div&gt;" style="text;html=1;align=center;verticalAlign=middle;whiteSpace=wrap;rounded=0;" vertex="1" parent="OcT6pale5q3MP4wA5Yij-19">
          <mxGeometry y="20" width="260" height="60" as="geometry" />
        </mxCell>
        <mxCell id="OcT6pale5q3MP4wA5Yij-21" value="&lt;div&gt;CMS_Pages&lt;/div&gt;" style="swimlane;whiteSpace=wrap;html=1;" vertex="1" parent="1">
          <mxGeometry x="365" y="300" width="260" height="190" as="geometry" />
        </mxCell>
        <mxCell id="OcT6pale5q3MP4wA5Yij-22" value="&lt;div&gt;id : INT&amp;nbsp;&amp;nbsp;&lt;/div&gt;&lt;div&gt;page_name : VARCHAR(100)&amp;nbsp;&amp;nbsp;&lt;/div&gt;&lt;div&gt;page_ext : VARCHAR(6)&amp;nbsp;&amp;nbsp;&lt;/div&gt;&lt;div&gt;lang_id : INT&amp;nbsp;&amp;nbsp;&lt;/div&gt;&lt;div&gt;lang_Tx : VARCHAR(3)&amp;nbsp;&amp;nbsp;&lt;/div&gt;&lt;div&gt;read_id : INT&amp;nbsp;&amp;nbsp;&lt;/div&gt;&lt;div&gt;read_write_id : INT&amp;nbsp;&amp;nbsp;&lt;/div&gt;&lt;div&gt;page_head : VARCHAR(160)&amp;nbsp;&amp;nbsp;&lt;/div&gt;&lt;div&gt;page_load_options : ENUM(&#39;process&#39;, &#39;write&#39;, &#39;read&#39;)&amp;nbsp;&amp;nbsp;&lt;/div&gt;&lt;div&gt;created_on : TIMESTAMP&amp;nbsp;&amp;nbsp;&lt;/div&gt;" style="text;html=1;align=center;verticalAlign=middle;whiteSpace=wrap;rounded=0;" vertex="1" parent="OcT6pale5q3MP4wA5Yij-21">
          <mxGeometry y="20" width="260" height="170" as="geometry" />
        </mxCell>
        <mxCell id="OcT6pale5q3MP4wA5Yij-23" value="&lt;div&gt;CMS_Page_content&lt;/div&gt;" style="swimlane;whiteSpace=wrap;html=1;" vertex="1" parent="1">
          <mxGeometry x="680" y="300" width="260" height="100" as="geometry" />
        </mxCell>
        <mxCell id="OcT6pale5q3MP4wA5Yij-24" value="&lt;div&gt;id : INT&amp;nbsp;&amp;nbsp;&lt;/div&gt;&lt;div&gt;Pages_id : INT&amp;nbsp;&amp;nbsp;&lt;/div&gt;&lt;div&gt;Page_types_id : INT&amp;nbsp;&amp;nbsp;&lt;/div&gt;&lt;div&gt;Content_id : INT&amp;nbsp;&amp;nbsp;&lt;/div&gt;&lt;div&gt;sort : INT&amp;nbsp;&lt;/div&gt;" style="text;html=1;align=center;verticalAlign=middle;whiteSpace=wrap;rounded=0;" vertex="1" parent="OcT6pale5q3MP4wA5Yij-23">
          <mxGeometry y="20" width="260" height="80" as="geometry" />
        </mxCell>
        <mxCell id="OcT6pale5q3MP4wA5Yij-25" value="&lt;div&gt;CMS_Forms&lt;/div&gt;" style="swimlane;whiteSpace=wrap;html=1;" vertex="1" parent="1">
          <mxGeometry x="680" y="420" width="260" height="100" as="geometry" />
        </mxCell>
        <mxCell id="OcT6pale5q3MP4wA5Yij-26" value="&lt;div&gt;id : INT&amp;nbsp;&amp;nbsp;&lt;/div&gt;&lt;div&gt;name : VARCHAR(100)&amp;nbsp;&amp;nbsp;&lt;/div&gt;&lt;div&gt;description : VARCHAR(200)&amp;nbsp;&amp;nbsp;&lt;/div&gt;&lt;div&gt;location : VARCHAR(50)&amp;nbsp;&amp;nbsp;&lt;/div&gt;&lt;div&gt;created_on : TIMESTAMP&lt;/div&gt;" style="text;html=1;align=center;verticalAlign=middle;whiteSpace=wrap;rounded=0;" vertex="1" parent="OcT6pale5q3MP4wA5Yij-25">
          <mxGeometry y="20" width="260" height="80" as="geometry" />
        </mxCell>
        <mxCell id="OcT6pale5q3MP4wA5Yij-27" value="&lt;div&gt;CMS_Form_fields&lt;/div&gt;" style="swimlane;whiteSpace=wrap;html=1;" vertex="1" parent="1">
          <mxGeometry x="40" y="410" width="260" height="160" as="geometry" />
        </mxCell>
        <mxCell id="OcT6pale5q3MP4wA5Yij-28" value="&lt;div&gt;id : INT&amp;nbsp;&amp;nbsp;&lt;/div&gt;&lt;div&gt;form_id : INT&amp;nbsp;&amp;nbsp;&lt;/div&gt;&lt;div&gt;field_key : VARCHAR(100)&amp;nbsp;&amp;nbsp;&lt;/div&gt;&lt;div&gt;field_type : ENUM(&#39;text&#39;, &#39;textarea&#39;, &#39;select&#39;, &#39;email&#39;, &#39;checkbox&#39;, &#39;radio&#39;, &#39;button&#39;, &#39;number&#39;)&amp;nbsp;&amp;nbsp;&lt;/div&gt;&lt;div&gt;field_anker : VARCHAR(100)&amp;nbsp;&amp;nbsp;&lt;/div&gt;&lt;div&gt;field_description : VARCHAR(100)&amp;nbsp;&amp;nbsp;&lt;/div&gt;&lt;div&gt;field_required : BOOLEAN&amp;nbsp;&amp;nbsp;&lt;/div&gt;&lt;div&gt;sort_order : INT&amp;nbsp;&amp;nbsp;&lt;/div&gt;" style="text;html=1;align=center;verticalAlign=middle;whiteSpace=wrap;rounded=0;" vertex="1" parent="OcT6pale5q3MP4wA5Yij-27">
          <mxGeometry y="20" width="260" height="140" as="geometry" />
        </mxCell>
        <mxCell id="OcT6pale5q3MP4wA5Yij-29" value="&lt;div&gt;CMS_Form_field_translation&lt;/div&gt;" style="swimlane;whiteSpace=wrap;html=1;" vertex="1" parent="1">
          <mxGeometry x="365" y="520" width="260" height="120" as="geometry" />
        </mxCell>
        <mxCell id="OcT6pale5q3MP4wA5Yij-30" value="&lt;div&gt;id : INT&amp;nbsp;&amp;nbsp;&lt;/div&gt;&lt;div&gt;field_id : INT&amp;nbsp;&amp;nbsp;&lt;/div&gt;&lt;div&gt;lang_id : INT&amp;nbsp;&amp;nbsp;&lt;/div&gt;&lt;div&gt;lang_label : VARCHAR(255)&amp;nbsp;&amp;nbsp;&lt;/div&gt;&lt;div&gt;lang_placeholder : VARCHAR(255)&amp;nbsp;&amp;nbsp;&lt;/div&gt;&lt;div&gt;lang_center : VARCHAR(255)&amp;nbsp;&amp;nbsp;&lt;span style=&quot;background-color: transparent; color: light-dark(rgb(0, 0, 0), rgb(255, 255, 255));&quot;&gt;&amp;nbsp;&lt;/span&gt;&lt;/div&gt;" style="text;html=1;align=center;verticalAlign=middle;whiteSpace=wrap;rounded=0;" vertex="1" parent="OcT6pale5q3MP4wA5Yij-29">
          <mxGeometry y="20" width="260" height="100" as="geometry" />
        </mxCell>
        <mxCell id="OcT6pale5q3MP4wA5Yij-31" value="&lt;div&gt;CMS_content_raw&lt;/div&gt;" style="swimlane;whiteSpace=wrap;html=1;" vertex="1" parent="1">
          <mxGeometry x="680" y="550" width="260" height="100" as="geometry" />
        </mxCell>
        <mxCell id="OcT6pale5q3MP4wA5Yij-32" value="&lt;div&gt;id : INT&amp;nbsp;&amp;nbsp;&lt;/div&gt;&lt;div&gt;content : LONGTEXT&amp;nbsp;&amp;nbsp;&lt;/div&gt;&lt;div&gt;description : TEXT&amp;nbsp;&amp;nbsp;&lt;/div&gt;&lt;div&gt;created_on : TIMESTAMP&lt;/div&gt;" style="text;html=1;align=center;verticalAlign=middle;whiteSpace=wrap;rounded=0;" vertex="1" parent="OcT6pale5q3MP4wA5Yij-31">
          <mxGeometry y="20" width="260" height="80" as="geometry" />
        </mxCell>
        <mxCell id="OcT6pale5q3MP4wA5Yij-33" value="&lt;div&gt;CMS_menu_links&lt;/div&gt;" style="swimlane;whiteSpace=wrap;html=1;" vertex="1" parent="1">
          <mxGeometry x="40" y="610" width="260" height="160" as="geometry" />
        </mxCell>
        <mxCell id="OcT6pale5q3MP4wA5Yij-34" value="&lt;div&gt;id : INT&amp;nbsp;&amp;nbsp;&lt;/div&gt;&lt;div&gt;lang_id : INT&amp;nbsp;&amp;nbsp;&lt;/div&gt;&lt;div&gt;pages_id : INT&amp;nbsp;&amp;nbsp;&lt;/div&gt;&lt;div&gt;rights_id : INT&amp;nbsp;&amp;nbsp;&lt;/div&gt;&lt;div&gt;description : TEXT&amp;nbsp;&amp;nbsp;&lt;/div&gt;&lt;div&gt;sort : INT&amp;nbsp;&amp;nbsp;&lt;/div&gt;&lt;div&gt;style : VARCHAR(20)&amp;nbsp;&amp;nbsp;&lt;/div&gt;&lt;div&gt;created_on : TIMESTAMP&amp;nbsp;&lt;/div&gt;" style="text;html=1;align=center;verticalAlign=middle;whiteSpace=wrap;rounded=0;" vertex="1" parent="OcT6pale5q3MP4wA5Yij-33">
          <mxGeometry y="20" width="260" height="140" as="geometry" />
        </mxCell>
      </root>
    </mxGraphModel>
  </diagram>
</mxfile>
